HIERARCHY
ROOT Hips
{
	OFFSET 0.00000 0.00000 0.00000
	CHANNELS 6 Xposition Yposition Zposition Zrotation Yrotation Xrotation 
	JOINT LHipJoint
	{
		OFFSET 0 0 0
		CHANNELS 3 Zrotation Yrotation Xrotation
		JOINT LeftUpLeg
		{
			OFFSET 1.55766 -1.60504 1.11378
			CHANNELS 3 Zrotation Yrotation Xrotation
			JOINT LeftLeg
			{
				OFFSET 2.29047 -6.29302 0.00000
				CHANNELS 3 Zrotation Yrotation Xrotation
				JOINT LeftFoot
				{
					OFFSET 2.52265 -6.93093 0.00000
					CHANNELS 3 Zrotation Yrotation Xrotation
					JOINT LeftToeBase
					{
						OFFSET 0.17633 -0.48446 2.02656
						CHANNELS 3 Zrotation Yrotation Xrotation
						End Site
						{
							OFFSET 0.00000 -0.00000 1.04989
						}
					}
				}
			}
		}
	}
	JOINT RHipJoint
	{
		OFFSET 0 0 0
		CHANNELS 3 Zrotation Yrotation Xrotation
		JOINT RightUpLeg
		{
			OFFSET -1.48599 -1.60504 1.11378
			CHANNELS 3 Zrotation Yrotation Xrotation
			JOINT RightLeg
			{
				OFFSET -2.27280 -6.24448 0.00000
				CHANNELS 3 Zrotation Yrotation Xrotation
				JOINT RightFoot
				{
					OFFSET -2.50834 -6.89161 0.00000
					CHANNELS 3 Zrotation Yrotation Xrotation
					JOINT RightToeBase
					{
						OFFSET -0.26967 -0.74090 2.08741
						CHANNELS 3 Zrotation Yrotation Xrotation
						End Site
						{
							OFFSET -0.00000 -0.00000 1.10614
						}
					}
				}
			}
		}
	}
	JOINT LowerBack
	{
		OFFSET 0 0 0
		CHANNELS 3 Zrotation Yrotation Xrotation
		JOINT Spine
		{
			OFFSET 0.06481 2.02437 -0.08472
			CHANNELS 3 Zrotation Yrotation Xrotation
			JOINT Spine1
			{
				OFFSET 0.00015 1.96711 0.18069
				CHANNELS 3 Zrotation Yrotation Xrotation
				JOINT Neck
				{
					OFFSET 0 0 0
					CHANNELS 3 Zrotation Yrotation Xrotation
					JOINT Neck1
					{
						OFFSET -0.29961 1.68293 -0.13041
						CHANNELS 3 Zrotation Yrotation Xrotation
						JOINT Head
						{
							OFFSET 0.59697 1.61501 -0.14669
							CHANNELS 3 Zrotation Yrotation Xrotation
							End Site
							{
								OFFSET 0.22973 1.74906 -0.10148
							}
						}
					}
				}
				JOINT LeftShoulder
				{
					OFFSET 0 0 0
					CHANNELS 3 Zrotation Yrotation Xrotation
					JOINT LeftArm
					{
						OFFSET 3.37968 1.02893 0.31147
						CHANNELS 3 Zrotation Yrotation Xrotation
						JOINT LeftForeArm
						{
							OFFSET 5.19807 -0.00000 -0.00000
							CHANNELS 3 Zrotation Yrotation Xrotation
							JOINT LeftHand
							{
								OFFSET 3.09370 -0.00000 -0.00000
								CHANNELS 3 Zrotation Yrotation Xrotation
								JOINT LeftFingerBase
								{
									OFFSET 0 0 0
									CHANNELS 3 Zrotation Yrotation Xrotation
									JOINT LeftHandIndex1
									{
										OFFSET 0.67263 -0.00000 -0.00000
										CHANNELS 3 Zrotation Yrotation Xrotation
										End Site
										{
											OFFSET 0.54229 -0.00000 -0.00000
										}
									}
								}
								JOINT LThumb
								{
									OFFSET 0 0 0
									CHANNELS 3 Zrotation Yrotation Xrotation
									End Site
									{
										OFFSET 0.55057 -0.00000 0.55057
									}
								}
							}
						}
					}
				}
				JOINT RightShoulder
				{
					OFFSET 0 0 0
					CHANNELS 3 Zrotation Yrotation Xrotation
					JOINT RightArm
					{
						OFFSET -3.38254 0.96355 -0.16120
						CHANNELS 3 Zrotation Yrotation Xrotation
						JOINT RightForeArm
						{
							OFFSET -5.45222 -0.00000 -0.00000
							CHANNELS 3 Zrotation Yrotation Xrotation
							JOINT RightHand
							{
								OFFSET -3.01284 -0.00000 -0.00000
								CHANNELS 3 Zrotation Yrotation Xrotation
								JOINT RightFingerBase
								{
									OFFSET 0 0 0
									CHANNELS 3 Zrotation Yrotation Xrotation
									JOINT RightHandIndex1
									{
										OFFSET -0.62230 -0.00000 -0.00000
										CHANNELS 3 Zrotation Yrotation Xrotation
										End Site
										{
											OFFSET -0.50171 -0.00000 -0.00000
										}
									}
								}
								JOINT RThumb
								{
									OFFSET 0 0 0
									CHANNELS 3 Zrotation Yrotation Xrotation
									End Site
									{
										OFFSET -0.50937 -0.00000 0.50937
									}
								}
							}
						}
					}
				}
			}
		}
	}
}
MOTION
Frames: 12
Frame Time: 0.1
0.00 0.00 0.00 0 0 0 0 0 0 -21 0 0 0 0 0 0 0 0 0 0 0 0 0 0 21 0 0 0 0 0 0 0 0 0 0 0 0 0 0 0 0 0 0 0 0 0 0 -16 0 0 21 0 0 11 0 0 0 -8 0 0 0 0 0 0 0 0 0 0 0 0 0 0 0 0 0 0 0 0 8 0 0 0 0 0 0 0 0 0 0 0 0 0 0 0 0 0
0.00 0.00 0.00 -129.4520 -82.4973 144.2030 0.0000 0.0000 0.0000 -12.7408 0.0454 -20.9303 0.9260 6.1305 17.1635 0.2328 -12.0215 -11.3481 0.8568 -5.9029 -16.5029 0.0000 0.0000 0.0000 26.8950 -10.8154 -12.7924 0.0000 -0.0000 0.0000 1.5278 23.5333 -2.0692 -0.2465 3.1951 -8.8223 5.0894 2.7780 -13.6624 -0.0157 2.7396 -5.8423 -2.4735 1.1702 1.7338 -29.2128 -8.4640 16.5391 46.9788 -17.1802 -12.9616 25.8580 -11.9529 1.7696 0.0000 -0.0000 0.0000 -62.7518 16.5509 43.2748 143.3386 -45.9627 -104.0038 -0.0000 0.0000 -23.2006 -26.0236 -7.8467 3.8135 -7.1250 0.0000 -0.0000 -35.2841 20.6384 25.9758 0.0000 -0.0000 0.0000 66.6288 -14.0867 46.1573 -143.2785 46.0030 -103.9606 0.0000 0.0000 10.9445 15.7202 5.3691 1.5087 7.1250 -0.0000 -0.0000 30.1526 -23.9996 17.8019
0.00 0.00 0.00 -129.5480 -82.5008 143.7620 0.0000 0.0000 0.0000 -12.8212 0.2330 -20.1658 0.9695 6.2687 17.5660 0.2933 -12.0520 -12.0377 0.8964 -6.0343 -16.8840 0.0000 0.0000 0.0000 26.6189 -11.2365 -11.9018 0.0000 0.0000 -0.0000 1.5215 23.6198 -2.3492 -0.2368 3.1317 -8.6457 4.2731 2.5639 -13.7483 0.6558 2.4638 -7.3407 -1.3828 0.9540 0.1238 -30.0983 -7.8645 18.7274 44.7891 -16.2958 -13.7166 24.8463 -11.2571 0.3778 -0.0000 -0.0000 0.0000 -28.1962 14.8191 30.6512 154.4572 -36.7537 -111.3874 -0.0000 0.0000 -33.7955 -24.8068 -4.5866 2.1167 -7.1250 0.0000 -0.0000 -35.6030 23.7417 22.9520 -0.0000 -0.0000 0.0000 27.4805 -10.5952 37.4725 -151.6985 39.3923 -109.6855 0.0000 0.0000 5.7692 17.7971 7.7525 2.4795 7.1250 -0.0000 -0.0000 30.8237 -21.7024 20.3340
0.00 0.00 0.00 -135.7500 -82.2121 149.1020 0.0000 0.0000 0.0000 -13.3347 0.6419 -18.8992 0.9892 6.3302 17.7454 0.3837 -11.5769 -12.8019 0.9015 -6.0512 -16.9329 0.0000 0.0000 0.0000 25.7740 -10.9143 -11.0496 -0.0035 -0.3822 1.0503 1.4598 23.7319 -3.4401 -0.2769 3.3844 -9.3509 5.0864 2.8790 -13.3317 0.2274 2.7567 -8.6584 -2.2813 0.9696 -1.4260 -32.4310 -6.3446 18.1109 41.8111 -14.3257 -11.5866 23.5385 -9.6392 -0.0737 0.0000 0.0000 0.0000 -3.6444 9.8708 5.5894 157.1946 -33.8754 -112.9705 -0.0000 0.0000 -45.2341 -18.5080 -10.5084 3.4937 -7.1250 0.0000 -0.0000 -30.5986 19.1616 22.2703 0.0000 0.0000 0.0000 0.0275 -4.1631 10.2888 -154.3940 36.8170 -111.3495 0.0000 -0.0000 -1.9450 15.5866 7.3393 2.0409 7.1250 -0.0000 -0.0000 29.5976 -22.2389 18.7996
0.00 0.00 0.00 -139.6590 -82.2579 153.4930 0.0000 0.0000 0.0000 -13.8762 0.9222 -19.4677 0.9731 6.2799 17.5987 0.3686 -11.7689 -12.7220 0.8830 -5.9903 -16.7563 0.0000 0.0000 0.0000 25.2701 -9.4743 -14.2078 -0.1197 -2.2309 6.1442 1.3233 24.1742 -5.8651 -0.2254 3.0561 -8.4350 5.2014 2.8754 -12.1593 0.0816 2.7638 -9.9555 -2.5584 0.8514 -3.4304 -34.1168 -5.9046 15.7931 39.3991 -13.6643 -8.0645 21.3743 -8.7664 0.8418 0.0000 0.0000 0.0000 6.0778 10.3168 -26.4615 155.6450 -35.5374 -112.0881 -0.0000 0.0000 -49.5626 -9.8645 -17.4063 2.9777 -7.1250 0.0000 -0.0000 -24.3439 13.2900 20.0360 0.0000 0.0000 0.0000 -11.4274 -3.3008 -16.4425 -154.3862 36.8248 -111.3449 0.0000 -0.0000 -3.1262 12.9308 2.8199 0.6472 7.1250 -0.0000 -0.0000 29.0169 -26.4681 14.9321
0.00 0.00 0.00 -141.5950 -82.7013 157.1840 0.0000 0.0000 0.0000 -14.4361 1.2529 -21.4871 0.9817 6.3069 17.6776 0.2887 -13.0883 -12.4918 0.7485 -5.5262 -15.4157 0.0000 0.0000 0.0000 24.7861 -8.6009 -17.2175 -0.2371 -3.1337 8.6513 1.3751 24.8224 -6.2848 -0.0845 1.8753 -5.1611 5.2819 3.6798 -11.4813 -0.1515 3.6804 -12.8355 -2.8485 1.0323 -6.8757 -34.7340 -6.0460 13.5380 34.0957 -13.8830 -2.3026 18.1649 -8.3018 2.2882 -0.0000 0.0000 0.0000 14.6003 11.5282 -47.5823 142.2259 -46.6944 -103.1990 -0.0000 0.0000 -49.1505 14.5842 -27.7242 -6.9016 -7.1250 0.0000 -0.0000 -9.3035 1.8015 9.1288 -0.0000 0.0000 0.0000 -24.3755 -6.2572 -41.9933 -142.6773 46.4013 -103.5266 0.0000 -0.0000 -1.3959 -11.1820 0.6709 -0.1326 7.1250 -0.0000 -0.0000 11.9785 -29.1966 4.7072
0.00 0.00 0.00 -138.4220 -83.5320 154.5920 0.0000 0.0000 0.0000 -14.6725 1.4154 -22.4190 0.9794 6.2996 17.6563 0.1600 -14.5270 -11.9426 0.6587 -5.1911 -14.4545 0.0000 0.0000 0.0000 24.9489 -9.1335 -18.2668 -0.2639 -3.3051 9.1294 1.3494 24.9446 -6.7389 -0.0906 1.9411 -5.3430 5.5733 3.7632 -11.0613 -0.3267 3.7388 -13.7693 -3.2305 0.9316 -8.1427 -34.7460 -6.4518 10.6983 31.6178 -13.7533 0.5158 16.7337 -7.9296 3.2616 -0.0000 -0.0000 0.0000 18.6795 11.0762 -50.8388 129.8376 -53.0608 -93.6961 -0.0000 0.0000 -48.6732 28.4068 -32.9581 -16.3958 -7.1250 0.0000 -0.0000 -2.0879 -6.3934 2.3088 -0.0000 -0.0000 0.0000 -30.4931 -5.5536 -48.1836 -129.0132 53.3858 -93.0357 0.0000 -0.0000 -2.1321 -22.8857 -0.7752 0.3272 7.1250 -0.0000 -0.0000 2.9268 -30.8138 1.0156
0.00 0.00 0.00 -134.8800 -83.9627 151.3880 0.0000 0.0000 0.0000 -14.5806 1.2118 -23.0005 0.9892 6.3303 17.7459 0.0948 -15.1010 -11.6204 0.6028 -4.9698 -13.8224 0.0000 0.0000 0.0000 25.1715 -9.4770 -18.8795 -0.2664 -3.3202 9.1714 1.3936 25.0604 -6.4474 -0.0627 1.6155 -4.4442 5.8031 3.8930 -10.6565 -0.5688 3.9119 -14.0946 -3.6357 0.9492 -8.7020 -34.8567 -6.5893 9.1035 30.4778 -13.4290 1.5319 16.1554 -7.6151 3.6105 -0.0000 0.0000 0.0000 22.0827 10.2127 -51.3816 115.2331 -57.4519 -81.6655 -0.0000 0.0000 -48.4072 30.7527 -34.0018 -18.4041 -7.1250 0.0000 -0.0000 -1.0235 -8.1443 1.1584 -0.0000 0.0000 0.0000 -34.4646 -4.7402 -51.5141 -115.5933 57.3742 -81.9691 0.0000 -0.0000 -5.2722 -28.6624 -2.1110 1.1535 7.1250 -0.0000 -0.0000 -1.6788 -32.3822 -0.5188
0.00 0.00 0.00 -131.3880 -84.2679 148.2180 0.0000 0.0000 0.0000 -14.3878 0.7463 -23.4973 0.9976 6.3562 17.8215 0.0672 -15.2140 -11.4055 0.5787 -4.8712 -13.5415 0.0000 0.0000 0.0000 25.4556 -9.6748 -19.5033 -0.2697 -3.3404 9.2278 1.4293 25.1439 -6.1947 -0.0471 1.4012 -3.8535 5.7267 4.0150 -10.1572 -0.6624 4.1203 -14.2607 -3.7170 1.0367 -9.1520 -34.5315 -6.6816 7.4646 29.1791 -12.8914 2.2265 15.4667 -7.1855 3.7663 -0.0000 -0.0000 0.0000 25.2783 9.3996 -51.2811 97.7541 -59.7716 -66.7101 -0.0000 0.0000 -46.8534 31.1736 -34.7397 -19.0218 -7.1250 0.0000 -0.0000 -0.9621 -9.0398 1.1014 -0.0000 -0.0000 0.0000 -38.5042 -4.2708 -53.9185 -99.4999 59.6562 -68.2176 0.0000 -0.0000 -6.9093 -30.1389 -2.7708 1.6077 7.1250 -0.0000 -0.0000 -2.8836 -33.1731 -0.8367
0.00 0.00 0.00 -126.6260 -84.5222 143.7490 0.0000 0.0000 0.0000 -14.0717 0.1734 -24.0511 1.0223 6.4322 18.0436 0.0581 -15.2174 -11.3120 0.5582 -4.7856 -13.2979 0.0000 0.0000 0.0000 25.8476 -9.9028 -20.1073 -0.2679 -3.3296 9.1977 1.4477 25.1514 -6.0093 -0.0422 1.3258 -3.6458 5.7664 4.0798 -9.5380 -0.8309 4.2586 -14.3857 -3.9556 1.0755 -9.6216 -34.6522 -6.6811 5.7028 28.2540 -12.2499 2.9220 15.0659 -6.7273 3.9859 -0.0000 -0.0000 0.0000 28.7890 7.8665 -51.4330 78.2623 -59.4730 -49.8528 -0.0000 0.0000 -45.6526 32.1545 -35.1859 -19.9121 -7.1250 0.0000 -0.0000 -0.5420 -9.8058 0.6264 -0.0000 -0.0000 0.0000 -41.8149 -2.7557 -55.9702 -80.9963 59.6915 -52.2107 0.0000 -0.0000 -7.2871 -29.9799 -3.7416 2.1559 7.1250 -0.0000 -0.0000 -2.7640 -34.2873 -0.7273
0.00 0.00 0.00 -123.4770 -84.4930 140.8830 0.0000 0.0000 0.0000 -13.5192 -0.6501 -24.4548 1.0414 6.4902 18.2135 0.1068 -14.5459 -11.3937 0.5743 -4.8531 -13.4899 0.0000 0.0000 0.0000 26.4837 -10.4804 -21.1526 -0.2799 -3.4027 9.4020 1.6704 26.0559 -5.0498 -0.0112 0.6835 -1.8784 5.3495 4.2690 -8.4431 -1.1159 4.5965 -14.7059 -4.1067 1.2246 -10.5949 -33.4039 -6.6021 4.1486 26.3905 -11.3293 3.0401 14.0511 -6.1053 3.7636 0.0000 -0.0000 0.0000 34.0209 4.8984 -51.5537 53.7280 -54.3927 -29.1790 -0.0000 0.0000 -43.9678 35.0721 -36.3337 -22.5861 -7.1250 0.0000 -0.0000 0.7043 -11.9618 -0.8350 0.0000 -0.0000 0.0000 -45.7203 -0.6749 -57.9514 -56.8093 55.3980 -31.7002 0.0000 -0.0000 -5.3941 -29.5807 -3.5837 2.0320 7.1250 -0.0000 -0.0000 -2.4341 -34.0912 -0.6519
0.00 0.00 0.00 -120.0920 -84.4551 140.0760 0.0000 0.0000 0.0000 -14.9197 1.9535 -29.2904 1.2558 7.1043 20.0249 -0.4291 -19.5779 -9.7923 0.1755 -2.6988 -7.4413 0.0000 0.0000 0.0000 27.0659 -12.1843 -25.6981 -0.3899 -4.0094 11.1031 2.3410 28.9382 -3.0190 -0.0001 -0.0742 0.2038 4.1317 3.1812 3.1652 -1.7488 3.7180 -16.8174 -4.9621 0.3474 -21.0067 -31.2240 -4.3455 -2.9110 27.8903 -6.2700 5.1120 14.6865 -3.1338 3.9526 -0.0000 -0.0000 0.0000 18.5884 14.7444 -43.2128 16.1877 -25.7745 -3.7272 -0.0000 0.0000 -30.0988 35.0069 -27.6797 -18.0222 -7.1250 0.0000 -0.0000 2.7111 -2.6241 -2.8355 -0.0000 -0.0000 0.0000 -20.4477 -15.6026 -73.6009 -13.3016 21.7275 -2.5639 0.0000 0.0000 29.7080 -17.4483 -8.5614 2.6789 7.1250 -0.0000 -0.0000 8.1595 -38.8254 1.2509
